<?xml version="1.0" standalone="no"?>
<!DOCTYPE svg PUBLIC "-//W3C//DTD SVG 20010904//EN"
 "http://www.w3.org/TR/2001/REC-SVG-20010904/DTD/svg10.dtd">
<svg version="1.0" xmlns="http://www.w3.org/2000/svg"
 width="640.000000pt" height="640.000000pt" viewBox="0 0 640.000000 640.000000"
 preserveAspectRatio="xMidYMid meet">

<g transform="translate(0.000000,640.000000) scale(0.100000,-0.100000)"
fill="#000000" stroke="none">
<path d="M0 6321 l0 -79 73 -4 c52 -2 79 -8 91 -20 28 -29 86 -39 149 -28 49
10 61 8 96 -10 22 -11 49 -20 60 -20 11 0 22 -4 26 -9 3 -5 29 -17 58 -26 28
-10 61 -26 73 -36 11 -11 24 -19 30 -19 5 0 2 5 -6 10 -13 9 -13 11 0 20 16
11 69 6 114 -12 20 -8 31 -9 33 -2 4 12 70 4 139 -15 22 -6 57 -11 78 -11 29
0 47 -7 67 -26 19 -18 42 -28 73 -31 29 -4 46 -11 46 -19 0 -28 74 -28 92 0
11 17 9 96 -2 96 -5 0 -10 6 -10 13 0 7 -9 18 -20 25 -25 15 -27 59 -2 66 9 2
37 8 62 11 25 4 55 16 67 28 19 16 25 18 38 7 10 -8 15 -9 15 -1 0 6 7 11 15
11 20 0 19 10 -2 25 -15 11 -15 13 5 24 33 17 27 31 -13 31 -23 0 -35 -5 -35
-14 0 -8 -7 -17 -17 -20 -22 -9 -163 5 -163 16 0 4 12 7 28 6 29 -2 72 17 72
32 0 12 68 33 87 26 8 -4 22 -1 29 5 11 9 24 8 54 -6 49 -22 114 -15 144 14
l20 21 -832 0 -832 0 0 -79z m960 -116 c0 -9 -6 -12 -15 -9 -8 4 -12 10 -9 15
8 14 24 10 24 -6z m241 -68 c-10 -9 -11 -8 -5 6 3 10 9 15 12 12 3 -3 0 -11
-7 -18z"/>
<path d="M1883 6370 c-3 -17 -15 -37 -27 -45 -11 -8 -15 -15 -9 -15 7 0 21 9
31 20 14 16 35 21 91 25 40 2 78 8 85 14 7 6 23 15 37 20 18 7 -5 10 -89 10
l-112 1 -7 -30z"/>
<path d="M2134 6385 c25 -19 31 -19 46 0 11 13 7 15 -26 15 -36 -1 -38 -2 -20
-15z"/>
<path d="M2285 6390 c7 -12 78 -12 150 0 43 6 35 8 -53 9 -67 1 -101 -3 -97
-9z"/>
<path d="M2495 6390 c3 -5 10 -10 16 -10 5 0 9 5 9 10 0 6 -7 10 -16 10 -8 0
-12 -4 -9 -10z"/>
<path d="M2610 6391 c0 -23 58 -35 72 -16 15 19 8 25 -32 25 -22 0 -40 -4 -40
-9z"/>
<path d="M2728 6393 c7 -3 16 -2 19 1 4 3 -2 6 -13 5 -11 0 -14 -3 -6 -6z"/>
<path d="M4288 6394 c-3 -3 -25 -7 -47 -9 -23 -2 -61 -13 -85 -24 -23 -12 -50
-21 -59 -21 -9 0 -17 -5 -17 -11 0 -10 120 -8 240 5 19 2 45 0 57 -5 14 -5 23
-4 26 4 3 9 11 9 37 0 19 -7 36 -9 39 -5 4 4 71 9 151 9 109 2 177 8 274 27
71 14 131 28 134 31 3 3 -103 5 -236 5 -155 0 -242 -4 -242 -10 0 -5 -15 -10
-34 -10 -19 0 -38 5 -41 10 -6 10 -187 14 -197 4z"/>
<path d="M5698 6373 c-1 -16 -1 -43 1 -61 1 -22 -2 -32 -8 -27 -6 3 -11 1 -11
-4 0 -6 5 -11 10 -11 6 0 10 -6 8 -12 -5 -26 13 -68 32 -78 11 -6 18 -15 15
-21 -4 -5 1 -9 10 -9 11 0 15 -5 12 -14 -4 -11 -1 -13 10 -9 12 5 14 1 9 -14
-4 -14 -2 -23 8 -26 9 -4 12 -14 9 -26 -4 -14 1 -23 13 -28 11 -3 22 -11 26
-17 5 -8 11 -7 20 2 14 14 58 16 58 2 0 -5 -5 -10 -11 -10 -8 0 -7 -5 1 -15
17 -21 -12 -44 -60 -46 -36 -2 -46 -1 -92 8 -31 6 -60 -17 -65 -50 -4 -25 -13
-36 -13 -16 0 8 -20 22 -45 32 l-46 16 -9 -24 c-5 -13 -17 -28 -27 -34 -11 -7
-14 -14 -8 -18 6 -5 11 -17 13 -28 2 -11 11 -26 20 -32 9 -7 12 -13 6 -13 -5
0 2 -9 16 -19 18 -15 24 -27 22 -53 -2 -28 3 -37 27 -51 19 -11 39 -15 54 -11
14 3 28 1 32 -5 4 -7 22 -9 47 -4 30 4 39 3 34 -5 -4 -7 -1 -12 7 -12 8 0 17
-6 20 -12 3 -8 -4 -13 -19 -13 -13 0 -24 6 -24 13 0 6 -4 12 -9 12 -13 0 -22
-28 -11 -35 5 -3 7 -12 3 -20 -3 -9 1 -15 11 -15 9 0 16 -4 16 -10 0 -5 5 -10
11 -10 6 0 9 6 6 14 -3 8 0 17 7 19 10 4 12 -1 9 -14 -7 -24 15 -25 33 -1 12
15 13 14 14 -13 l0 -30 16 30 c20 40 28 45 20 15 l-7 -25 20 23 c19 22 38 31
26 12 -7 -12 18 -40 37 -40 10 0 9 -3 -2 -10 -13 -8 -13 -10 2 -10 9 0 22 -8
27 -17 6 -10 11 -13 11 -7 0 6 10 11 23 11 53 1 67 4 83 21 10 9 20 17 23 17
3 0 5 6 5 13 -3 20 13 14 19 -8 3 -11 13 -20 24 -21 14 0 12 -3 -7 -11 l-25
-10 22 -9 c14 -5 21 -14 17 -23 -4 -10 0 -14 15 -13 12 1 21 8 22 17 0 11 2
11 6 2 4 -9 10 -7 22 7 10 12 21 18 25 14 3 -3 6 -2 6 4 0 6 9 13 20 16 16 4
20 14 20 45 0 23 4 43 8 46 7 4 10 -4 15 -59 1 -14 5 -25 10 -25 4 0 7 198 7
440 l0 440 -350 0 -350 0 -2 -27z m-81 -485 c-3 -7 -5 -2 -5 12 0 14 2 19 5
13 2 -7 2 -19 0 -25z m669 -292 c20 -21 18 -23 -16 -18 -16 2 -30 8 -30 13 0
5 7 5 17 2 11 -4 14 -3 9 5 -10 17 2 15 20 -2z m-261 -36 c3 -5 -3 -10 -15
-10 -12 0 -18 5 -15 10 3 6 10 10 15 10 5 0 12 -4 15 -10z m311 -20 c0 -23
-11 -27 -19 -6 -3 8 -1 17 6 20 7 2 12 5 12 5 1 1 1 -8 1 -19z"/>
<path d="M2030 6330 c0 -5 -7 -10 -15 -10 -8 0 -15 -4 -15 -10 0 -13 3 -13 35
2 28 12 33 28 10 28 -8 0 -15 -4 -15 -10z"/>
<path d="M2145 6330 c-3 -5 -1 -10 4 -10 6 0 11 5 11 10 0 6 -2 10 -4 10 -3 0
-8 -4 -11 -10z"/>
<path d="M3574 6259 c-13 -14 -14 -19 -4 -19 7 0 10 -3 7 -7 -4 -3 -1 -13 7
-22 7 -9 16 -28 20 -43 6 -27 5 -28 -38 -28 -24 0 -46 -5 -48 -11 -2 -5 -28
-11 -57 -11 -43 -1 -57 3 -70 18 -17 21 -99 43 -181 48 -42 3 -108 29 -120 47
-3 5 -21 10 -40 13 -19 2 -52 9 -73 16 -37 11 -57 7 -57 -11 0 -5 16 -9 35 -9
19 0 35 -2 35 -5 0 -18 -32 -64 -47 -68 -17 -4 -17 -5 0 -6 9 0 17 -6 17 -12
0 -6 -8 -8 -18 -5 -10 4 -27 0 -37 -8 -19 -14 -19 -15 -1 -34 17 -20 20 -20
51 -5 39 19 65 12 65 -17 0 -11 5 -20 10 -20 6 0 10 -7 10 -15 0 -8 -2 -15 -5
-15 -12 0 -75 35 -75 42 0 4 -7 8 -15 8 -8 0 -15 -4 -15 -10 0 -5 -13 -10 -29
-10 -37 0 -46 -13 -29 -40 10 -17 22 -20 55 -19 23 2 47 -2 55 -8 7 -7 26 -17
41 -22 25 -10 31 -7 57 19 16 17 34 30 39 30 5 0 14 14 20 32 10 29 12 30 29
15 15 -14 24 -14 87 -1 39 8 78 16 88 17 9 1 17 8 17 17 1 13 2 13 13 -1 7 -8
33 -25 58 -37 26 -13 55 -32 65 -43 17 -19 19 -19 25 -2 7 17 8 17 8 1 1 -10
8 -18 16 -18 11 0 15 11 15 43 0 31 4 44 14 44 10 0 12 -9 9 -30 -3 -17 1 -49
7 -73 15 -54 36 -49 51 12 14 53 34 66 104 69 27 2 51 3 53 4 1 0 -4 14 -12
30 -17 33 -57 61 -86 61 -14 0 -20 7 -20 23 0 12 -10 29 -22 36 l-23 15 23 5
c20 5 16 8 -22 22 -43 15 -46 15 -62 -2z"/>
<path d="M1500 6226 c0 -5 -7 -18 -16 -27 -14 -16 -15 -23 -5 -48 18 -41 41
-43 108 -10 58 29 55 36 -14 30 -26 -2 -30 11 -8 29 28 23 18 39 -25 37 -22
-1 -40 -6 -40 -11z"/>
<path d="M2640 6233 c0 -7 -18 -22 -40 -33 -22 -11 -40 -25 -40 -30 0 -6 37
-10 88 -10 l87 0 -35 18 c-19 9 -40 28 -47 42 -7 14 -13 19 -13 13z"/>
<path d="M54 6208 c-4 -6 0 -16 9 -23 26 -19 20 -25 -23 -25 -38 0 -40 -2 -40
-30 0 -18 5 -30 13 -30 7 0 22 -9 34 -19 52 -49 179 -85 202 -57 11 13 9 16
-16 21 -15 3 -48 12 -73 20 -25 8 -54 15 -65 15 -18 0 -18 2 5 20 25 20 25 20
5 35 -11 9 -20 21 -21 28 0 7 -2 22 -2 35 -2 24 -16 29 -28 10z"/>
<path d="M2780 6183 c0 -10 5 -25 10 -33 7 -12 12 -12 22 -2 8 8 8 12 1 12 -6
0 -10 7 -9 16 0 9 -5 19 -11 21 -8 3 -13 -3 -13 -14z"/>
<path d="M2865 6150 c3 -5 8 -10 11 -10 2 0 4 5 4 10 0 6 -5 10 -11 10 -5 0
-7 -4 -4 -10z"/>
<path d="M1815 6104 l-30 -24 40 3 c27 1 41 8 43 18 5 27 -22 28 -53 3z"/>
<path d="M756 6059 c-15 -9 -16 -13 -5 -20 25 -16 49 -10 49 11 0 22 -15 25
-44 9z"/>
<path d="M540 6040 c0 -5 9 -10 20 -10 11 0 20 5 20 10 0 6 -9 10 -20 10 -11
0 -20 -4 -20 -10z"/>
<path d="M5420 6019 c-70 -23 -140 -25 -140 -4 0 11 -11 15 -40 15 -22 0 -40
-4 -40 -10 0 -5 16 -10 36 -10 27 0 37 -5 41 -19 6 -24 49 -44 70 -33 8 5 32
4 55 -2 38 -10 41 -9 62 17 14 18 31 27 50 27 23 0 25 2 14 14 -24 23 -51 24
-108 5z"/>
<path d="M5200 5990 c0 -5 4 -10 9 -10 6 0 13 5 16 10 3 6 -1 10 -9 10 -9 0
-16 -4 -16 -10z"/>
<path d="M5088 5973 c6 -2 18 -2 25 0 6 3 1 5 -13 5 -14 0 -19 -2 -12 -5z"/>
<path d="M1760 5935 c-14 -7 -23 -17 -20 -22 3 -4 -13 -14 -35 -21 -47 -15
-72 -41 -52 -54 21 -13 45 -9 64 11 10 11 30 22 45 26 44 11 74 76 35 75 -7
-1 -23 -7 -37 -15z"/>
<path d="M4125 5943 c-11 -2 -29 -8 -40 -13 -28 -12 -75 -19 -70 -9 3 4 1 10
-5 14 -5 3 -10 -3 -10 -13 0 -11 -7 -23 -17 -26 -27 -11 13 -34 72 -42 38 -6
45 -9 30 -15 -14 -5 -4 -8 30 -8 31 0 45 3 37 8 -11 6 -9 9 6 13 11 3 28 18
37 32 17 25 17 27 0 46 -18 20 -30 22 -70 13z"/>
<path d="M3040 5910 c0 -5 7 -7 15 -4 8 4 15 8 15 10 0 2 -7 4 -15 4 -8 0 -15
-4 -15 -10z"/>
<path d="M4295 5888 c8 -38 25 -61 25 -35 0 10 8 17 19 17 22 0 45 25 36 40
-3 5 -24 10 -46 10 -40 0 -41 0 -34 -32z"/>
<path d="M1858 5863 c6 -2 18 -2 25 0 6 3 1 5 -13 5 -14 0 -19 -2 -12 -5z"/>
<path d="M2918 5854 c-14 -14 14 -34 49 -34 19 0 43 -5 54 -10 10 -6 19 -7 19
-2 0 5 15 13 33 17 l32 8 -40 9 c-63 14 -139 21 -147 12z"/>
<path d="M3233 5768 c-18 -13 -33 -31 -33 -40 0 -10 -4 -18 -10 -18 -5 0 -10
-7 -10 -15 0 -8 5 -15 10 -15 6 0 10 3 10 8 0 4 51 8 113 10 133 3 217 13 220
27 1 5 -21 10 -50 11 -29 0 -71 10 -97 22 -72 34 -115 37 -153 10z"/>
<path d="M1160 5722 c0 -5 7 -15 15 -22 8 -7 12 -16 9 -21 -7 -11 7 -11 24 0
11 6 6 14 -17 30 -17 12 -31 18 -31 13z"/>
<path d="M250 5710 c-11 -7 -4 -10 28 -10 23 0 42 5 42 10 0 13 -50 13 -70 0z"/>
<path d="M0 5676 c0 -21 5 -24 48 -28 68 -6 79 0 48 28 -16 16 -37 24 -61 24
-30 0 -35 -3 -35 -24z"/>
<path d="M276 5657 c-19 -14 -19 -15 10 -20 92 -18 114 -19 114 -4 0 8 -13 17
-29 20 -16 3 -39 9 -52 12 -14 3 -32 0 -43 -8z"/>
<path d="M2240 5661 c0 -8 -37 -58 -78 -106 -9 -11 -22 -29 -28 -40 -6 -12
-18 -19 -30 -17 -14 2 -16 1 -5 -7 11 -7 0 -27 -50 -95 -35 -48 -79 -108 -97
-134 -18 -26 -42 -60 -55 -76 -12 -16 -24 -32 -27 -36 -9 -12 -252 -19 -300
-8 -25 5 -70 13 -100 18 -30 4 -69 12 -87 18 -26 8 -38 7 -69 -10 -36 -19 -40
-19 -87 -4 -27 9 -62 16 -78 16 -15 0 -31 5 -34 10 -3 6 -15 10 -26 10 -10 0
-19 6 -19 14 0 8 -7 16 -15 20 -8 3 -15 1 -15 -4 0 -6 -49 -10 -120 -10 -73 0
-120 -4 -120 -10 0 -5 7 -10 16 -10 8 0 12 -5 9 -11 -4 -6 -22 -8 -45 -4 -25
4 -42 2 -51 -7 -8 -8 -21 -17 -30 -20 -9 -4 -19 -16 -22 -28 -5 -21 -3 -22 37
-16 33 5 46 3 56 -9 12 -14 12 -18 0 -25 -7 -4 -23 -4 -34 0 -47 18 -130 40
-151 40 -13 0 -25 3 -27 8 -2 4 -32 22 -67 41 l-64 34 -131 -7 c-106 -5 -135
-4 -151 8 -11 8 -41 19 -65 26 -25 6 -53 13 -62 16 -15 5 -18 -1 -18 -35 0
-37 3 -41 24 -41 27 0 41 -14 31 -31 -5 -7 -15 -5 -31 6 l-24 16 2 -418 c3
-395 4 -418 21 -421 10 -2 27 4 37 13 16 15 26 15 74 5 72 -15 185 -19 189 -7
1 5 25 11 52 14 26 4 59 11 71 18 28 14 184 1 196 -17 5 -7 7 -25 5 -40 -2
-17 2 -29 10 -33 22 -8 6 -24 -18 -18 -14 4 -25 0 -31 -11 -12 -22 -28 -20
-28 4 0 16 -7 20 -36 20 -19 0 -43 4 -52 9 -9 5 -55 11 -102 13 l-84 3 -32
-35 c-32 -35 -33 -35 -121 -35 -74 0 -94 -4 -123 -22 l-35 -22 83 0 c55 0 82
4 82 12 0 6 8 4 18 -6 15 -16 15 -19 2 -27 -8 -5 -11 -10 -7 -10 5 0 2 -7 -5
-15 -7 -8 -19 -21 -26 -30 -11 -12 -26 -14 -78 -9 l-64 7 0 -2052 0 -2051
3200 0 3200 0 0 798 c-1 838 1 814 -45 840 -19 11 -19 11 -1 12 10 0 16 5 13
13 -5 13 17 39 27 30 10 -10 6 636 -4 662 -6 16 -6 25 0 25 7 0 10 494 10
1390 0 1233 -2 1390 -15 1390 -8 0 -23 9 -32 20 -10 11 -24 20 -32 20 -8 0
-11 3 -7 7 4 4 -8 14 -25 23 -18 8 -34 23 -35 34 -4 30 -18 37 -52 25 -20 -7
-29 -15 -25 -25 3 -8 1 -14 -4 -14 -11 0 -11 -30 1 -48 11 -18 -9 -15 -25 4
-7 9 -22 14 -36 11 -20 -4 -23 0 -24 27 0 17 -3 25 -6 19 -2 -7 -9 -13 -15
-13 -6 0 -8 7 -4 15 3 10 -9 21 -41 35 -25 11 -48 20 -52 20 -13 0 -31 -41
-24 -53 8 -12 9 -17 11 -51 2 -16 8 -18 40 -13 20 3 31 3 25 0 -21 -8 -15 -44
7 -50 11 -3 20 -11 20 -18 0 -9 -8 -11 -22 -7 -17 4 -20 2 -15 -11 4 -10 2
-17 -3 -17 -6 0 -10 5 -10 10 0 6 -8 10 -17 10 -9 0 -13 -3 -10 -7 4 -3 2 -12
-4 -20 -8 -9 -8 -17 0 -26 6 -8 8 -17 4 -20 -3 -4 -1 -7 6 -7 7 0 24 -9 38
-20 19 -15 30 -17 44 -9 13 7 19 6 19 -1 0 -6 9 -20 20 -32 11 -12 20 -28 20
-36 0 -9 -7 -11 -20 -7 -15 5 -20 2 -20 -14 0 -11 5 -23 10 -26 6 -3 10 -10
10 -16 0 -5 -4 -9 -10 -9 -5 0 -10 6 -10 13 0 18 -232 46 -238 28 -2 -7 -32
-11 -83 -11 -46 0 -79 -4 -79 -10 0 -5 -18 -10 -40 -10 -29 0 -40 -4 -40 -15
0 -11 -11 -15 -40 -15 -30 0 -40 -4 -40 -16 0 -13 -10 -15 -52 -12 -35 2 -53
-1 -55 -9 -3 -10 11 -13 51 -13 38 0 56 -4 56 -12 0 -10 -29 -12 -120 -10
-103 3 -120 1 -120 -12 0 -12 -10 -16 -39 -16 -22 0 -41 5 -43 10 -2 6 -55 13
-121 17 -112 6 -117 5 -117 -14 0 -18 9 -20 114 -26 89 -5 121 -11 147 -26 18
-11 36 -18 41 -15 4 3 8 1 8 -5 0 -16 -42 -25 -113 -22 -53 2 -68 -1 -73 -13
-3 -9 -15 -16 -25 -16 -15 0 -19 -7 -19 -40 0 -40 0 -40 -39 -40 -22 0 -42 -6
-45 -12 -5 -10 -7 -10 -12 0 -3 6 -14 12 -24 12 -10 0 -22 9 -25 21 -8 24 -9
23 30 37 17 6 21 11 10 9 -11 -1 -26 2 -33 7 -7 4 -15 6 -18 3 -8 -7 -10 -86
-3 -81 3 2 13 -4 22 -14 21 -24 5 -66 -22 -57 -15 5 -18 1 -13 -20 3 -16 -2
-33 -12 -44 -13 -15 -14 -20 -4 -23 7 -3 -2 -5 -20 -5 -21 0 -28 3 -20 9 10 6
10 10 -1 17 -12 8 -13 12 -1 26 10 13 15 13 21 3 6 -10 11 -10 20 -1 10 10 8
18 -9 36 -12 13 -22 35 -22 50 0 27 -6 31 -75 40 -16 2 -37 6 -45 8 -12 3 -16
-7 -18 -47 -2 -42 -7 -53 -22 -57 -11 -3 -20 -1 -20 4 0 5 -8 9 -18 9 -10 0
-23 5 -29 11 -11 11 -5 59 8 59 5 0 7 28 5 63 l-3 62 -34 -3 c-62 -7 -71 -17
-67 -78 1 -30 0 -54 -4 -54 -5 0 -8 7 -8 16 0 8 -5 12 -11 8 -6 -3 -24 3 -40
15 -16 12 -42 24 -59 27 -16 4 -28 11 -27 17 1 6 -25 26 -58 44 -33 18 -59 38
-57 44 2 7 -4 9 -13 6 -19 -8 -20 7 -1 22 11 10 15 9 18 -3 2 -12 8 -12 31 -3
l29 12 -20 23 c-23 27 -31 27 -48 5 -10 -15 -16 -16 -32 -6 -19 12 -32 8 -32
-9 0 -4 7 -8 15 -8 8 0 15 -4 15 -10 0 -13 4 -13 -63 10 -31 11 -65 20 -76 20
-11 0 -22 8 -25 18 -3 9 -51 39 -106 66 -98 48 -155 88 -101 71 16 -5 21 -4
17 4 -4 6 -13 11 -20 11 -9 0 -12 9 -9 24 4 19 -1 27 -24 38 -20 9 -29 21 -31
43 -3 43 7 52 63 59 35 4 44 3 30 -3 -19 -9 -19 -10 3 -10 12 -1 25 -8 28 -16
4 -8 12 -15 20 -15 8 0 14 -7 14 -15 0 -8 6 -16 13 -16 18 -3 49 -5 75 -7 13
-1 22 -9 22 -19 0 -10 6 -25 13 -33 28 -36 197 -57 197 -25 0 7 -7 18 -16 23
-10 6 -12 12 -6 16 6 3 -3 20 -22 40 -24 26 -44 37 -89 46 -32 6 -61 18 -64
26 -7 20 -41 17 -46 -3 -4 -15 -6 -14 -12 5 -5 16 -13 21 -25 17 -10 -3 -21
-1 -25 5 -3 6 -11 8 -16 4 -5 -3 -43 -2 -84 1 -54 5 -75 11 -75 21 0 10 -13
14 -40 14 -29 0 -40 4 -40 15 0 11 -11 15 -43 15 -37 0 -44 -3 -55 -30 -18
-39 -26 -38 -46 5 l-17 35 -77 -1 c-42 0 -86 -4 -97 -9 -19 -8 -19 -9 0 -9 14
-1 16 -4 8 -12 -8 -8 -25 -8 -63 0 -29 6 -55 9 -58 6 -3 -3 2 -5 10 -5 9 0 21
-7 28 -15 8 -9 21 -13 36 -9 19 5 26 1 34 -20 9 -25 14 -26 65 -25 31 1 61 -3
67 -9 7 -7 30 -12 53 -12 41 -1 75 -18 75 -39 0 -6 12 -11 26 -11 14 0 23 4
19 10 -3 6 3 10 14 10 15 0 21 8 24 33 l4 32 1 -32 c1 -17 -4 -38 -12 -46 -9
-9 -11 -19 -5 -28 7 -11 9 -10 9 4 0 10 5 17 12 15 21 -7 20 -26 -1 -33 -29
-9 -26 -21 7 -28 15 -3 36 -13 47 -21 19 -15 19 -15 -5 -9 -22 6 -24 5 -11
-10 8 -10 9 -17 3 -17 -9 0 -308 146 -321 157 -3 2 4 10 15 18 17 13 16 13
-11 4 -27 -10 -40 -6 -137 46 -60 31 -113 55 -119 53 -6 -2 13 -16 42 -31 116
-58 420 -225 434 -238 5 -6 2 -9 -10 -9 -10 0 -203 100 -429 222 -460 248
-438 236 -614 335 -24 14 -42 27 -39 29 3 3 27 -7 53 -22 27 -15 43 -21 37
-12 -7 8 -32 23 -55 33 -24 9 -59 25 -78 35 -136 70 -216 113 -224 121 -13 11
-36 12 -36 0z m3810 -481 c0 -5 -2 -10 -4 -10 -3 0 -8 5 -11 10 -3 6 -1 10 4
10 6 0 11 -4 11 -10z m-3746 -294 c-3 -9 -10 -13 -15 -10 -5 3 -3 11 4 19 15
16 19 13 11 -9z m3864 6 c6 -18 -15 -14 -22 4 -4 10 -1 14 6 12 6 -2 14 -10
16 -16z m-135 -19 c-7 -2 -19 -2 -25 0 -7 3 -2 5 12 5 14 0 19 -2 13 -5z
m-3758 -13 c3 -5 1 -10 -4 -10 -6 0 -11 5 -11 10 0 6 2 10 4 10 3 0 8 -4 11
-10z m3885 -6 c0 -8 -4 -12 -10 -9 -5 3 -10 10 -10 16 0 5 5 9 10 9 6 0 10 -7
10 -16z m-2739 -10 c12 -15 11 -16 -11 -9 -35 10 -49 25 -23 25 11 0 27 -7 34
-16z m-385 -301 c-2 -3 -19 4 -38 13 -31 17 -37 19 -55 23 -5 1 -1 6 7 11 11
7 6 8 -17 4 -27 -5 -33 -3 -33 11 0 11 -5 15 -15 11 -8 -3 -15 -1 -15 4 0 6 9
10 20 10 11 0 20 4 20 9 0 14 -28 21 -33 8 -2 -6 -6 -2 -9 9 -4 15 0 20 15 21
34 3 43 21 16 32 -22 9 -21 10 14 10 26 1 37 5 37 16 0 8 4 15 9 15 5 0 14 -7
21 -15 19 -23 42 -19 39 8 -1 12 2 42 7 67 7 36 10 13 12 -109 1 -85 1 -156
-2 -158z m430 270 c-7 -7 -26 7 -26 19 0 6 6 6 15 -2 9 -7 13 -15 11 -17z
m744 -113 c8 -5 11 -10 5 -10 -5 0 -17 5 -25 10 -8 5 -10 10 -5 10 6 0 17 -5
25 -10z m-846 -85 c3 -9 19 -15 41 -15 28 0 35 -4 35 -19 0 -11 -6 -21 -12
-24 -8 -2 -7 -3 2 -3 8 1 17 15 20 31 4 18 9 -13 14 -78 4 -60 6 -110 4 -111
-10 -8 -328 -83 -333 -78 -9 9 -6 177 4 208 5 16 12 42 16 58 5 23 8 27 16 15
7 -12 9 -12 9 1 1 12 3 11 11 -2 6 -12 22 -18 45 -18 21 0 33 -4 29 -10 -3 -5
-1 -10 4 -10 6 0 11 16 11 35 0 34 1 35 39 35 25 0 41 -5 45 -15z m-3109 -45
c3 -5 1 -10 -4 -10 -6 0 -11 5 -11 10 0 6 2 10 4 10 3 0 8 -4 11 -10z m3612
-747 c-1 -137 -2 -25 -2 247 0 272 1 384 2 248 2 -137 2 -359 0 -495z m60 -55
c-1 -145 -2 -27 -2 262 0 289 1 407 2 263 2 -145 2 -381 0 -525z m-3687 748
c0 -8 6 -17 13 -19 9 -4 9 -8 -2 -15 -9 -6 -25 -6 -45 1 -17 5 -52 12 -78 14
-66 7 -60 24 7 22 30 -1 58 1 62 4 12 13 43 7 43 -7z m4479 -79 c13 -13 14
-27 2 -27 -12 0 -31 57 -30 89 1 20 3 17 9 -12 4 -21 12 -43 19 -50z m-672
-720 c-1 -139 -2 -22 -2 258 0 281 1 394 2 252 2 -142 2 -372 0 -510z m-1109
732 c23 -6 42 -15 42 -19 0 -5 14 -11 30 -15 29 -6 30 -8 30 -65 0 -57 -1 -59
-32 -68 -41 -13 -150 -39 -200 -48 l-38 -6 0 75 c0 41 3 89 6 106 7 34 24 42
24 12 0 -11 4 -23 10 -26 6 -3 7 1 4 10 -4 11 -2 14 9 9 11 -4 17 2 20 23 4
27 4 27 6 -4 2 -45 21 -42 21 3 0 25 4 34 13 30 6 -2 31 -10 55 -17z m1169
-36 c-3 -10 -5 -2 -5 17 0 19 2 27 5 18 2 -10 2 -26 0 -35z m803 25 c0 -39
-12 -68 -26 -68 -8 0 -14 5 -14 11 0 5 5 7 10 4 6 -3 10 -1 10 4 0 6 -5 11
-12 11 -6 0 -4 6 7 13 12 10 14 16 7 21 -17 10 -15 26 3 26 9 0 15 -9 15 -22z
m127 -30 c-2 -13 -4 -5 -4 17 -1 22 1 32 4 23 2 -10 2 -28 0 -40z m-173 -67
c-6 -6 -34 20 -34 32 0 6 8 2 19 -9 10 -10 17 -21 15 -23z m1266 29 c0 -5 -4
-10 -10 -10 -5 0 -10 5 -10 10 0 6 5 10 10 10 6 0 10 -4 10 -10z m-5456 -16
c3 -8 2 -12 -4 -9 -6 3 -10 10 -10 16 0 14 7 11 14 -7z m1976 -72 l0 -87 -56
-14 c-31 -7 -63 -15 -71 -18 -13 -5 -14 4 -9 58 3 35 12 69 19 74 8 6 16 17
20 25 3 9 6 2 6 -15 l1 -30 19 24 18 24 7 -37 c4 -20 4 -41 1 -46 -3 -6 -1
-10 4 -10 6 0 11 17 11 39 0 21 3 53 6 70 12 59 24 31 24 -57z m2274 37 c-9
-15 -20 -10 -20 10 0 15 3 17 13 9 7 -6 10 -14 7 -19z m690 -4 c-7 -16 -24
-21 -24 -6 0 8 7 13 27 20 1 1 0 -6 -3 -14z m59 -10 c-7 -21 -13 -19 -13 6 0
11 4 18 10 14 5 -3 7 -12 3 -20z m-2066 -127 c-2 -24 -4 -5 -4 42 0 47 2 66 4
43 2 -24 2 -62 0 -85z m203 -150 c0 -180 -4 -268 -10 -258 -13 21 -13 530 0
530 6 0 10 -97 10 -272z m1220 262 c0 -5 -5 -10 -11 -10 -5 0 -7 5 -4 10 3 6
8 10 11 10 2 0 4 -4 4 -10z m350 -10 c0 -5 -4 -10 -10 -10 -5 0 -10 5 -10 10
0 6 5 10 10 10 6 0 10 -4 10 -10z m195 0 c3 -5 1 -10 -4 -10 -6 0 -11 5 -11
10 0 6 2 10 4 10 3 0 8 -4 11 -10z m-4782 -7 c-7 -2 -19 -2 -25 0 -7 3 -2 5
12 5 14 0 19 -2 13 -5z m2679 -72 c0 -54 3 -74 14 -78 17 -6 19 -21 2 -20 -51
2 -49 17 -48 -264 1 -144 -1 -264 -4 -267 -3 -3 -6 113 -6 257 l0 263 -42 -8
c-24 -4 -49 -7 -55 -7 -7 0 -13 -4 -13 -8 0 -4 -8 -8 -17 -8 -10 0 -37 -3 -60
-7 l-43 -7 0 -258 c0 -172 -3 -259 -10 -259 -7 0 -10 79 -10 233 0 127 1 243
0 256 0 18 -4 22 -17 16 -10 -4 -58 -15 -108 -24 l-90 -16 0 -247 c0 -135 -3
-250 -7 -254 -5 -4 -8 103 -8 239 0 240 -5 276 -32 249 -5 -5 -9 -105 -8 -250
0 -155 -3 -243 -10 -247 -7 -4 -10 73 -10 239 0 235 -1 246 -19 246 -18 0 -19
-10 -18 -247 2 -198 -1 -247 -11 -251 -11 -3 -13 39 -10 242 3 242 3 247 -17
244 -22 -3 -21 20 -17 -278 2 -91 2 -169 1 -175 -1 -5 -2 -16 -3 -22 0 -7 -5
-12 -9 -10 -5 1 -8 109 -7 240 1 224 0 238 -17 235 -17 -3 -18 -21 -18 -243 0
-132 -4 -241 -8 -242 -7 -2 -12 341 -7 482 0 8 9 15 20 15 18 0 20 7 20 74 l0
74 125 31 c68 17 129 31 135 31 6 0 10 -28 10 -68 0 -38 2 -71 5 -74 3 -3 23
0 45 6 l40 10 0 66 c0 36 4 71 9 78 7 12 305 93 325 88 5 -1 8 -35 8 -75z
m2330 41 c-10 -3 -10 -7 -1 -18 8 -9 8 -14 1 -14 -16 0 -23 16 -16 34 3 9 11
13 17 9 8 -5 7 -8 -1 -11z m-404 -17 c-3 -3 -9 2 -12 12 -6 14 -5 15 5 6 7 -7
10 -15 7 -18z m-1291 -47 c-2 -13 -4 -3 -4 22 0 25 2 35 4 23 2 -13 2 -33 0
-45z m-3537 1 c-12 -39 -9 -37 -50 -40 -90 -7 -200 1 -200 14 0 8 -15 14 -40
15 -38 3 -40 1 -41 -25 l-1 -28 -10 28 c-7 20 -7 32 0 39 13 13 114 19 152 10
23 -5 22 -7 -15 -18 -40 -12 -40 -12 35 -13 57 -1 71 2 62 11 -22 22 -13 28
43 28 32 0 55 4 55 11 0 5 4 8 9 4 6 -3 6 -18 1 -36z m150 31 c0 -5 -2 -10 -4
-10 -3 0 -8 5 -11 10 -3 6 -1 10 4 10 6 0 11 -4 11 -10z m1761 -51 c-3 -4 -20
-9 -38 -12 -26 -5 -31 -3 -26 8 3 8 11 15 19 15 8 0 14 9 14 19 0 30 24 31 31
2 3 -14 3 -29 0 -32z m1166 24 c-3 -10 -5 -4 -5 12 0 17 2 24 5 18 2 -7 2 -21
0 -30z m30 -20 c-3 -10 -5 -2 -5 17 0 19 2 27 5 18 2 -10 2 -26 0 -35z m-2855
5 c-9 -9 -12 -7 -12 12 0 19 3 21 12 12 9 -9 9 -15 0 -24z m4734 -13 c7 -18
-4 -37 -17 -29 -6 3 -5 12 3 21 11 14 10 15 -12 9 -19 -6 -21 -5 -10 3 20 15
30 14 36 -4z m48 -19 c-10 -8 -21 -12 -24 -10 -5 6 21 24 34 24 6 0 1 -6 -10
-14z m-5014 -6 c0 -5 -4 -10 -10 -10 -5 0 -10 5 -10 10 0 6 5 10 10 10 6 0 10
-4 10 -10z m110 -20 c0 -5 -4 -10 -9 -10 -6 0 -13 5 -16 10 -3 6 1 10 9 10 9
0 16 -4 16 -10z m40 -41 c0 -14 -17 -10 -23 5 -4 10 -1 13 9 9 7 -3 14 -9 14
-14z m-423 -11 c-3 -8 -6 -5 -6 6 -1 11 2 17 5 13 3 -3 4 -12 1 -19z m2343
-123 c7 -12 9 -112 8 -260 l-3 -240 -3 243 -2 243 -37 -5 c-21 -3 -43 -5 -50
-5 -8 -1 -12 -26 -12 -76 0 -42 3 -73 8 -71 5 3 5 -14 0 -37 -4 -24 -4 -43 2
-45 15 -6 11 -152 -3 -153 -10 0 -10 -2 0 -6 17 -7 15 -78 -3 -93 -8 -7 -15
-11 -16 -9 0 2 -1 112 -2 244 l-1 240 -37 0 c-21 0 -36 -2 -33 -6 2 -4 -9 -9
-24 -12 -15 -3 -34 -8 -44 -12 -14 -6 -17 3 -20 64 -2 42 1 72 7 75 6 2 9 -13
8 -38 l-2 -41 12 42 c14 50 16 52 53 58 54 9 168 36 174 41 3 3 6 -23 8 -58 1
-34 7 -72 12 -83z m1447 83 c-2 -13 -4 -3 -4 22 0 25 2 35 4 23 2 -13 2 -33 0
-45z m-3487 21 c0 -14 -17 -10 -23 5 -4 10 -1 13 9 9 7 -3 14 -9 14 -14z m160
-20 c0 -16 -4 -29 -10 -29 -5 0 -10 16 -10 36 0 21 4 33 10 29 6 -3 10 -19 10
-36z m2717 -6 c-3 -10 -5 -2 -5 17 0 19 2 27 5 18 2 -10 2 -26 0 -35z m250 -5
c-2 -13 -4 -5 -4 17 -1 22 1 32 4 23 2 -10 2 -28 0 -40z m-428 -205 c0 -151
-4 -240 -9 -228 -16 36 -10 475 6 475 2 0 4 -111 3 -247z m-2595 212 c3 -8 1
-15 -4 -15 -6 0 -10 7 -10 15 0 8 2 15 4 15 2 0 6 -7 10 -15z m-514 -20 c7 -9
8 -15 2 -15 -5 0 -12 7 -16 15 -3 8 -4 15 -2 15 2 0 9 -7 16 -15z m2930 -236
c0 -156 -4 -239 -10 -239 -7 0 -10 84 -8 245 1 134 5 242 10 239 4 -3 8 -113
8 -245z m-118 -252 c-13 -31 -16 34 -12 245 l5 243 5 -240 c3 -132 4 -243 2
-248z m235 451 c-3 -7 -5 -2 -5 12 0 14 2 19 5 13 2 -7 2 -19 0 -25z m730 -25
c-3 -10 -5 -2 -5 17 0 19 2 27 5 18 2 -10 2 -26 0 -35z m-3207 28 c0 -5 -7
-11 -14 -14 -10 -4 -13 -1 -9 9 6 15 23 19 23 5z m2298 -233 l-2 -213 -6 205
c-3 113 -4 208 -2 213 10 24 12 -14 10 -205z m-2254 196 c18 -7 10 -34 -10
-34 -8 0 -14 9 -14 20 0 22 1 23 24 14z m2673 -66 c-2 -13 -4 -3 -4 22 0 25 2
35 4 23 2 -13 2 -33 0 -45z m400 -60 c-2 -24 -4 -5 -4 42 0 47 2 66 4 43 2
-24 2 -62 0 -85z m210 60 c-2 -13 -4 -3 -4 22 0 25 2 35 4 23 2 -13 2 -33 0
-45z m-1486 -280 c-2 -81 -7 -145 -12 -142 -11 6 -12 352 -1 420 7 46 7 44 12
-41 3 -49 3 -156 1 -237z m756 70 c-1 -46 -3 -9 -3 82 0 91 2 128 3 83 2 -46
2 -120 0 -165z m-918 -80 c1 -120 -2 -158 -11 -158 -10 0 -12 42 -11 182 2
101 3 203 4 228 4 91 16 -91 18 -252z m38 -30 c-1 -57 -3 -11 -3 102 0 113 2
159 3 103 2 -57 2 -149 0 -205z m763 182 c0 -73 -4 -120 -10 -120 -6 0 -10 44
-10 113 0 100 4 127 17 127 2 0 3 -54 3 -120z m907 43 c-2 -16 -4 -3 -4 27 0
30 2 43 4 28 2 -16 2 -40 0 -55z m-1871 -88 c5 -82 8 -172 7 -198 -1 -33 2
-47 10 -44 8 2 14 48 17 138 l6 134 2 -157 c2 -121 -1 -158 -10 -158 -7 0 -23
-3 -35 -6 l-23 -6 0 158 c0 142 8 299 16 292 1 -2 6 -70 10 -153z m-1511 136
c7 -12 -12 -24 -25 -16 -11 7 -4 25 10 25 5 0 11 -4 15 -9z m1457 -333 c2 -47
-1 -68 -9 -68 -8 0 -11 48 -11 178 1 175 1 176 9 67 4 -60 9 -140 11 -177z
m1745 200 c-2 -18 -4 -6 -4 27 0 33 2 48 4 33 2 -15 2 -42 0 -60z m120 -115
c-2 -38 -3 -7 -3 67 0 74 1 105 3 68 2 -38 2 -98 0 -135z m-1923 -8 c4 -82 4
-146 1 -143 -4 3 -9 73 -12 155 -3 81 -3 146 0 143 2 -3 7 -72 11 -155z m-57
63 c-2 -13 -4 -3 -4 22 0 25 2 35 4 23 2 -13 2 -33 0 -45z m260 -150 c-1 -40
-3 -8 -3 72 0 80 2 112 3 73 2 -40 2 -106 0 -145z m1110 150 c-2 -13 -4 -3 -4
22 0 25 2 35 4 23 2 -13 2 -33 0 -45z m-2407 -18 c-8 -5 -22 -9 -30 -9 -10 0
-8 3 5 9 27 12 43 12 25 0z m-50 -10 c0 -5 -5 -10 -11 -10 -5 0 -7 5 -4 10 3
6 8 10 11 10 2 0 4 -4 4 -10z m127 4 c-3 -3 -12 -4 -19 -1 -8 3 -5 6 6 6 11 1
17 -2 13 -5z m-241 -45 c16 -18 16 -19 0 -19 -10 0 -14 -5 -10 -11 4 -7 1 -10
-7 -7 -8 3 -13 12 -13 21 1 9 -1 16 -5 15 -17 -2 -31 3 -31 11 0 16 49 9 66
-10z m2334 11 c0 -5 -2 -10 -4 -10 -3 0 -8 5 -11 10 -3 6 -1 10 4 10 6 0 11
-4 11 -10z m189 -162 c5 -138 0 -155 -51 -179 -42 -21 -219 -54 -242 -46 -22
9 -36 48 -36 102 0 24 -5 47 -10 50 -7 4 -7 12 0 25 14 26 13 30 -8 30 -10 0
-19 -6 -20 -12 0 -7 -3 -51 -6 -96 -6 -96 -21 -126 -67 -136 -48 -9 -119 -7
-119 4 0 6 -20 10 -45 10 -37 0 -45 3 -45 19 0 10 7 21 15 25 8 3 15 12 15 21
0 9 -7 18 -15 21 -22 9 -18 21 8 29 l22 7 -25 9 c-19 6 -14 7 20 4 44 -5 41 0
-15 21 -18 7 -18 8 5 12 32 5 55 23 40 32 -5 3 43 14 107 24 65 9 140 22 167
28 64 14 289 45 297 41 4 -1 7 -22 8 -45z m61 -8 c0 -5 -4 -10 -9 -10 -5 0
-17 -3 -25 -6 -12 -5 -15 -2 -10 10 7 17 44 22 44 6z m-1320 -15 c0 -8 -4 -15
-10 -15 -5 0 -7 7 -4 15 4 8 8 15 10 15 2 0 4 -7 4 -15z m57 9 c-3 -3 -12 -4
-19 -1 -8 3 -5 6 6 6 11 1 17 -2 13 -5z m-1057 -24 c13 -9 13 -10 0 -10 -8 0
-22 5 -30 10 -13 9 -13 10 0 10 8 0 22 -5 30 -10z m1647 -26 c-3 -3 -12 -4
-19 -1 -8 3 -5 6 6 6 11 1 17 -2 13 -5z m1018 -44 c9 8 15 8 15 2 0 -17 41
-26 51 -11 7 11 9 10 9 -3 0 -10 6 -18 14 -18 8 0 15 -6 17 -12 9 -30 -3 -528
-12 -528 -6 0 -8 35 -6 91 3 55 1 86 -4 78 -5 -8 -10 -84 -11 -169 -2 -146 -2
-149 -7 -55 -6 96 -6 99 -22 74 -13 -18 -19 -65 -25 -184 -9 -155 -9 -158 -15
-75 l-5 85 -3 -75 -2 -75 -14 40 c-8 22 -14 49 -14 60 1 13 4 10 9 -10 7 -28
8 -27 9 13 0 23 -3 42 -8 42 -6 0 -12 15 -14 33 -2 17 -5 -6 -6 -53 -6 -163
-18 -18 -24 270 -3 151 -6 277 -7 280 0 3 -5 -2 -10 -10 -7 -10 -10 21 -10 98
0 93 3 112 15 112 8 0 15 5 15 10 0 6 11 3 25 -6 20 -13 28 -14 40 -4z m151
-165 c-3 -55 -9 -199 -12 -320 -3 -121 -7 -221 -9 -223 -2 -2 -4 155 -4 350
-1 327 0 351 15 323 13 -24 15 -50 10 -130z m46 96 c2 -17 1 -28 -4 -25 -8 5
-12 54 -4 54 2 0 6 -13 8 -29z m-1584 10 c10 -6 9 -10 -7 -14 -27 -7 -63 2
-55 14 7 11 45 11 62 0z m319 -63 c-3 -7 -5 -2 -5 12 0 14 2 19 5 13 2 -7 2
-19 0 -25z m1583 -345 c0 -192 -4 -354 -9 -361 -4 -7 -9 149 -9 347 -1 236 1
361 8 361 6 0 10 -122 10 -347z m103 334 c15 0 27 -5 27 -9 0 -5 4 -7 9 -4 5
3 22 1 38 -4 24 -9 29 -16 27 -43 -1 -22 0 -24 3 -7 9 48 23 45 25 -5 l1 -50
7 45 c6 40 7 35 10 -40 2 -50 5 -68 7 -45 8 72 18 55 20 -31 l2 -85 -37 5
c-20 3 -44 6 -52 9 -8 2 -29 7 -47 11 -17 4 -34 15 -36 24 -3 9 -5 -54 -5
-142 0 -87 -3 -161 -6 -164 -3 -3 -6 5 -6 18 0 23 0 23 -15 4 -8 -10 -15 -14
-16 -9 -1 6 -5 -15 -9 -45 -5 -40 -7 -18 -8 80 0 83 3 127 8 115 5 -12 8 59 7
175 l-1 195 -6 -155 -6 -155 -2 154 c-1 85 -4 152 -7 149 -3 -2 -6 -110 -7
-239 -1 -129 -5 -261 -8 -294 -4 -33 -8 78 -9 248 l-1 307 33 -6 c17 -4 44 -7
60 -7z m-417 -252 c-2 -119 -6 -219 -10 -222 -8 -8 -8 297 0 376 4 33 8 61 10
61 2 0 2 -97 0 -215z m51 -42 c-1 -49 -3 -9 -3 87 0 96 2 136 3 88 2 -49 2
-127 0 -175z m-871 232 c-18 -14 -17 -15 25 -15 72 -1 24 -18 -67 -24 -77 -5
-78 -5 -39 8 22 8 31 15 21 15 -26 1 -9 18 24 24 50 9 56 7 36 -8z m1462 -1
c12 -4 22 -11 21 -18 -1 -6 0 -36 2 -66 l3 -55 6 70 c6 66 7 63 8 -42 1 -70
-2 -113 -8 -113 -5 0 -11 10 -11 23 l-2 22 -4 -22 c-2 -13 -11 -23 -19 -23
-11 0 -14 20 -16 93 l-2 92 -6 -90 -6 -90 -2 113 c-1 61 1 112 6 112 4 0 17
-3 30 -6z m-3378 -52 c0 -44 -11 -76 -21 -60 -10 15 -12 82 -3 91 12 12 24 -4
24 -31z m3441 -219 c-1 -136 -4 -249 -7 -252 -2 -2 -4 112 -4 254 0 142 3 256
6 252 4 -3 6 -117 5 -254z m19 152 c-7 -96 -7 -97 -8 -29 -2 62 6 140 13 132
1 -2 -1 -48 -5 -103z m27 13 c-2 -18 -4 -6 -4 27 0 33 2 48 4 33 2 -15 2 -42
0 -60z m31 -120 c2 174 9 221 26 176 3 -9 7 -32 7 -52 1 -28 3 -31 6 -12 3 14
9 30 15 37 5 7 7 16 4 22 -3 5 2 8 11 6 10 -2 21 -4 26 -4 4 -1 8 -20 9 -43
l1 -43 7 45 c4 25 8 40 8 33 1 -6 11 -10 22 -8 19 4 20 -2 20 -104 l0 -108
-30 5 c-24 3 -30 9 -30 28 0 13 -5 24 -11 24 -6 0 -8 -9 -4 -20 5 -15 2 -20
-13 -20 -15 0 -19 6 -17 25 2 16 -2 25 -11 25 -9 0 -14 -12 -15 -32 l-2 -33
-7 35 c-6 29 -7 23 -8 -30 0 -43 2 -56 7 -40 10 34 25 -185 16 -233 -5 -26 -4
-37 5 -37 6 0 18 -7 26 -15 9 -8 11 -15 6 -15 -5 0 -2 -25 6 -55 15 -53 32
-65 32 -22 0 17 2 19 9 8 7 -11 10 -9 14 10 2 13 4 -5 4 -41 1 -49 -1 -58 -7
-35 -5 21 -8 2 -9 -61 -1 -57 -7 -105 -16 -128 -17 -40 -18 -40 -45 -26 -17 9
-21 6 -30 -22 -10 -32 -10 -32 -6 9 4 45 -8 68 -17 33 -3 -11 -11 -19 -19 -18
-7 2 -13 -6 -13 -17 0 -27 -14 -22 -31 11 -17 32 -20 69 -4 44 8 -13 10 -12
10 3 0 9 5 17 10 17 6 0 10 5 10 11 0 6 7 17 15 25 8 9 15 27 15 40 0 14 4 22
10 19 6 -4 10 5 10 20 0 15 -4 24 -10 20 -6 -4 -10 26 -10 84 0 84 -2 91 -25
109 -21 17 -25 28 -25 70 0 31 5 52 13 54 9 4 13 60 17 219 l5 214 5 -200 6
-200 2 193z m-3485 137 c-9 -50 -23 -53 -23 -4 0 25 3 49 7 52 12 13 22 -16
16 -48z m2117 -4 c2 -393 -2 -903 -7 -963 -6 -78 -6 -78 -35 -78 -17 0 -27 4
-23 10 3 6 1 10 -4 10 -6 0 -11 -4 -11 -10 0 -5 -9 -10 -21 -10 -19 0 -21 5
-17 57 4 79 -17 82 -26 3 -6 -51 -10 -60 -27 -60 -18 0 -20 5 -17 41 2 26 -2
44 -9 46 -8 3 -13 -12 -15 -44 -4 -62 -22 -62 -26 0 -4 60 -22 62 -22 2 0 -45
-12 -60 -24 -29 -3 9 -6 29 -6 45 0 22 -5 29 -20 29 -11 0 -20 5 -20 11 0 6 9
13 20 16 23 6 27 23 5 23 -9 0 -15 9 -16 23 0 12 -2 96 -4 187 -3 91 -7 285
-11 431 l-6 266 25 15 c31 21 57 24 200 25 l117 0 0 -46z m-1393 18 c-14 -8
-22 -8 -30 0 -8 8 -3 11 19 11 25 -1 27 -2 11 -11z m2940 -91 c-2 -18 -4 -4
-4 32 0 36 2 50 4 33 2 -18 2 -48 0 -65z m123 57 c6 -4 25 -8 41 -9 17 -1 35
-9 40 -17 6 -9 9 -10 9 -2 0 7 6 10 14 7 9 -3 17 -28 21 -63 5 -40 11 -58 21
-58 8 0 15 5 16 11 0 6 2 16 3 21 2 6 3 23 4 38 1 25 4 28 29 25 24 -3 27 -7
25 -38 l-2 -35 10 28 c8 21 17 27 33 25 11 -2 20 -9 19 -16 -2 -6 2 -12 7 -12
6 0 10 5 10 10 0 6 5 10 11 10 5 0 7 -5 4 -10 -3 -6 1 -13 9 -16 11 -4 16 -20
16 -53 1 -41 2 -44 14 -28 12 15 14 11 18 -36 2 -30 2 -71 0 -92 l-5 -38 -12
29 c-12 25 -13 26 -14 7 -1 -12 -5 -24 -10 -27 -4 -3 -11 -19 -15 -36 -3 -17
-10 -29 -15 -26 -5 4 -12 -11 -16 -32 -9 -53 -20 -69 -38 -54 -20 17 -26 6
-20 -33 3 -19 2 -42 -2 -52 -6 -16 -8 -16 -16 5 -5 13 -13 21 -18 17 -6 -3
-15 13 -21 35 -6 22 -15 40 -20 40 -17 0 -11 42 7 55 11 9 17 28 17 61 l1 49
-47 -1 c-38 -1 -49 2 -53 17 -4 10 -4 23 0 28 3 5 1 12 -5 16 -6 4 -11 -30
-12 -97 l-2 -103 -6 95 c-3 71 -6 32 -10 -148 -3 -149 -9 -243 -15 -245 -6 -1
-10 32 -11 83 l-1 85 7 -85 c4 -53 6 9 6 165 0 193 -1 221 -6 120 l-6 -130 -4
130 c-2 100 -5 119 -10 80 l-7 -50 -3 65 c-3 49 -6 34 -10 -65 l-6 -130 -2
145 c-1 195 -1 190 -12 163 -9 -23 -25 -28 -54 -17 -13 5 -16 25 -16 114 l0
108 49 -13 c27 -7 54 -16 61 -20z m-2093 -357 c-2 -211 -8 -391 -12 -400 -4
-10 -13 -18 -21 -18 -8 0 -14 -4 -14 -10 0 -5 9 -10 20 -10 11 0 20 -5 20 -11
0 -6 -9 -8 -20 -4 -11 4 -20 2 -20 -4 0 -6 9 -11 20 -11 21 0 21 0 24 -120 l1
-55 -123 -3 c-83 -2 -121 1 -117 8 3 5 2 10 -4 10 -5 0 -12 -6 -14 -12 -3 -7
-3 5 0 26 5 28 3 37 -6 32 -8 -6 -11 105 -9 456 l3 463 120 21 c66 12 128 22
138 23 18 1 19 -14 14 -381z m-677 362 c-20 -13 -63 -13 -55 0 3 6 21 10 38
10 24 0 28 -3 17 -10z m1249 -92 c1 -33 -3 -58 -9 -58 -6 0 -10 34 -9 83 1 93
16 72 18 -25z m-1236 60 c-29 -5 -53 -13 -53 -18 0 -4 -10 -6 -21 -3 -41 11 9
33 70 32 l56 -1 -52 -10z m77 -18 c-33 -11 -109 -12 -92 -2 7 5 36 9 65 10 40
0 46 -1 27 -8z m156 -7 c13 -17 13 -17 14 0 0 10 5 15 10 12 10 -6 15 -667 5
-677 -3 -3 -17 -3 -31 0 -24 4 -26 8 -20 44 l6 39 -72 -3 c-72 -3 -73 -3 -78
-33 -5 -27 -9 -30 -39 -28 -43 2 -46 6 -31 44 10 24 12 91 7 305 l-7 274 22 0
c12 0 18 -3 15 -7 -6 -5 21 -32 33 -33 3 0 6 10 7 21 2 26 1 25 43 33 24 4 30
3 20 -3 -26 -17 -4 -22 26 -6 20 10 24 15 11 15 -10 0 -15 5 -12 10 10 16 57
11 71 -7z m1021 -70 c-2 -16 -4 -5 -4 22 0 28 2 40 4 28 2 -13 2 -35 0 -50z
m1874 14 c-10 -9 -11 -8 -5 6 3 10 9 15 12 12 3 -3 0 -11 -7 -18z m46 -35 c2
-23 0 -42 -5 -42 -6 0 -12 20 -14 45 -2 25 1 44 6 42 5 -2 11 -22 13 -45z
m-1868 -44 c-1 -60 -4 -75 -9 -53 -11 45 -11 135 0 135 6 0 10 -33 9 -82z m31
-9 c0 -39 -4 -69 -10 -69 -6 0 -10 32 -10 76 0 47 4 73 10 69 6 -3 10 -37 10
-76z m20 -26 c-7 -23 -8 -18 -8 27 0 45 1 50 8 28 5 -16 5 -40 0 -55z m904 49
c8 -13 11 -210 4 -218 -10 -9 -111 15 -120 29 -4 7 -8 29 -8 50 0 30 7 46 30
69 26 25 31 27 36 13 9 -23 24 0 24 38 0 26 22 38 34 19z m-3297 -34 c-3 -8
-6 -5 -6 6 -1 11 2 17 5 13 3 -3 4 -12 1 -19z m2760 -475 c-1 -82 -3 -15 -3
147 0 162 2 229 3 148 2 -82 2 -214 0 -295z m-488 67 c0 -168 -4 -277 -9 -265
-5 11 -9 148 -9 305 0 168 4 277 9 265 5 -11 9 -148 9 -305z m40 -69 c1 -139
-2 -172 -11 -163 -9 9 -13 79 -15 260 -1 239 -1 244 12 162 7 -47 14 -164 14
-259z m388 232 c-2 -21 -4 -4 -4 37 0 41 2 58 4 38 2 -21 2 -55 0 -75z m1193
98 c0 -6 -4 -13 -10 -16 -5 -3 -10 1 -10 9 0 9 5 16 10 16 6 0 10 -4 10 -9z
m-282 -39 c2 -7 -3 -12 -12 -12 -9 0 -16 7 -16 16 0 17 22 14 28 -4z m-1852
-29 c-10 -10 -19 5 -10 18 6 11 8 11 12 0 2 -7 1 -15 -2 -18z m1937 -24 c-17
-17 -36 -1 -20 16 7 8 16 10 22 4 5 -6 5 -13 -2 -20z m-1056 -281 c-1 -57 -3
-11 -3 102 0 113 2 159 3 103 2 -57 2 -149 0 -205z m530 135 c-2 -32 -3 -6 -3
57 0 63 1 89 3 58 2 -32 2 -84 0 -115z m34 55 c1 -62 4 -102 7 -88 4 23 5 24
13 5 5 -13 8 5 8 53 1 41 5 72 11 72 6 0 10 -24 10 -54 0 -30 4 -58 10 -61 5
-3 8 -31 5 -64 -2 -31 0 -70 5 -87 4 -16 9 -22 9 -14 2 26 21 -11 21 -41 0
-31 26 -47 33 -21 3 9 5 -9 6 -40 0 -33 -3 -58 -9 -58 -5 0 -10 4 -10 9 0 17
-40 19 -50 3 -5 -10 -10 -12 -10 -4 0 6 -6 12 -14 12 -8 0 -16 5 -18 12 -2 6
-9 9 -16 7 -8 -3 -4 -16 13 -40 24 -33 26 -69 4 -69 -5 0 -9 -10 -10 -22 0
-13 -3 -17 -6 -10 -8 21 -35 14 -28 -8 5 -16 3 -19 -12 -13 -24 9 -43 28 -44
45 0 7 -4 4 -9 -7 -8 -19 -9 -19 -9 2 -1 12 -6 25 -12 29 -13 8 -3 -35 12 -50
14 -15 11 -36 -5 -36 -13 0 -37 63 -48 125 -2 11 -8 19 -13 17 -12 -4 -23 28
-17 50 2 9 10 14 18 11 11 -4 14 8 14 55 0 81 -13 113 -21 52 -3 -25 -6 25 -6
110 0 85 2 135 4 110 5 -53 23 -79 24 -34 1 29 1 29 9 4 7 -21 8 -22 9 -5 2
31 20 -3 22 -40 1 -29 1 -30 9 -5 6 17 9 -1 10 -60 2 -47 4 -74 7 -60 11 71
17 75 23 15 l7 -60 3 65 c3 65 3 65 10 20 5 -33 8 -13 10 80 2 69 2 142 1 163
-1 21 2 37 8 37 7 0 11 -40 12 -112z m-624 45 c-3 -10 -5 -2 -5 17 0 19 2 27
5 18 2 -10 2 -26 0 -35z m830 15 c-3 -8 -6 -5 -6 6 -1 11 2 17 5 13 3 -3 4
-12 1 -19z m-1068 -190 c1 -95 -3 -159 -9 -163 -7 -4 -10 59 -9 182 1 110 4
178 9 163 4 -14 8 -96 9 -182z m911 192 c0 -5 -4 -10 -10 -10 -5 0 -10 5 -10
10 0 6 5 10 10 10 6 0 10 -4 10 -10z m532 -80 c3 14 5 -6 5 -45 1 -38 -2 -61
-6 -50 -3 11 -8 -18 -11 -65 -5 -81 -6 -84 -19 -57 -8 15 -18 27 -23 27 -11 0
-10 -47 2 -71 11 -20 8 -22 -27 -13 -13 4 -20 11 -16 20 3 8 -2 17 -11 20 -12
5 -13 11 -6 24 6 10 10 58 11 107 0 58 3 81 9 68 6 -14 9 -15 10 -5 1 10 4 9
10 -5 l9 -20 2 20 c1 12 5 6 9 -15 7 -32 7 -31 9 18 0 33 5 51 11 47 6 -4 11
8 12 27 1 28 2 27 7 -12 6 -37 8 -40 13 -20z m-1425 -72 c-2 -24 -4 -5 -4 42
0 47 2 66 4 43 2 -24 2 -62 0 -85z m342 -98 c-4 -25 -6 16 -6 90 0 123 1 127
6 45 3 -49 3 -110 0 -135z m638 143 c-2 -16 -4 -3 -4 27 0 30 2 43 4 28 2 -16
2 -40 0 -55z m550 55 c-3 -8 -6 -5 -6 6 -1 11 2 17 5 13 3 -3 4 -12 1 -19z
m173 12 c0 -5 -2 -10 -4 -10 -3 0 -8 5 -11 10 -3 6 -1 10 4 10 6 0 11 -4 11
-10z m-1601 -177 c-1 -88 -3 -100 -10 -63 -7 41 -1 170 7 170 2 0 3 -48 3
-107z m560 29 c0 -13 -3 -20 -9 -17 -5 3 -9 27 -9 53 1 42 2 44 9 17 4 -16 8
-40 9 -53z m-2176 3 c24 -175 18 -160 57 -163 19 -2 39 -8 45 -13 14 -14 -63
-3 -80 11 -7 6 -19 10 -27 9 -7 -2 -46 0 -85 5 l-73 7 -9 37 c-5 20 -12 65
-15 99 l-7 62 58 4 c32 2 74 3 93 3 l35 -1 8 -60z m1667 35 c0 -11 -4 -20 -10
-20 -5 0 -10 9 -10 20 0 11 5 20 10 20 6 0 10 -9 10 -20z m1358 -26 c9 -7 13
-18 9 -28 -12 -32 -32 -11 -34 35 -1 24 1 35 4 24 3 -11 12 -25 21 -31z m877
26 c3 -5 2 -10 -4 -10 -5 0 -13 5 -16 10 -3 6 -2 10 4 10 5 0 13 -4 16 -10z
m185 0 c0 -5 -2 -10 -4 -10 -3 0 -8 5 -11 10 -3 6 -1 10 4 10 6 0 11 -4 11
-10z m-2410 -70 c0 -16 -4 -30 -10 -30 -5 0 -10 14 -10 30 0 17 5 30 10 30 6
0 10 -13 10 -30z m57 -32 c-2 -13 -4 -3 -4 22 0 25 2 35 4 23 2 -13 2 -33 0
-45z m240 -45 c-2 -21 -4 -4 -4 37 0 41 2 58 4 38 2 -21 2 -55 0 -75z m1219
89 c17 3 20 -5 24 -74 6 -84 20 -117 21 -47 0 24 3 62 8 84 l7 40 6 -43 c7
-50 15 -62 28 -42 12 19 50 22 50 3 0 -8 4 -12 9 -8 15 8 25 -60 12 -82 -8
-14 -11 -14 -11 -3 0 13 -1 13 -10 0 -9 -13 -10 -13 -10 0 -1 19 -47 53 -60
45 -6 -3 -10 -24 -10 -45 0 -47 -10 -77 -20 -60 -4 6 -17 12 -28 13 -14 1 -22
8 -22 19 0 10 -5 18 -11 18 -6 0 -9 -9 -6 -20 3 -11 1 -18 -3 -15 -5 3 -10 -3
-13 -12 -4 -17 -4 -17 -12 1 -5 12 -3 21 6 27 10 7 11 11 2 17 -7 4 -10 33 -8
84 4 87 13 127 25 109 4 -7 16 -11 26 -9z m-249 -34 c-3 -8 -6 -5 -6 6 -1 11
2 17 5 13 3 -3 4 -12 1 -19z m-2720 -4 c-3 -3 -12 -4 -19 -1 -8 3 -5 6 6 6 11
1 17 -2 13 -5z m3870 -20 c-3 -3 -12 -4 -19 -1 -8 3 -5 6 6 6 11 1 17 -2 13
-5z m-3861 -36 c-2 -41 -30 -46 -34 -6 -2 19 2 28 15 31 10 3 19 5 19 6 1 0 1
-14 0 -31z m184 17 c0 -8 -4 -15 -10 -15 -5 0 -12 -22 -16 -50 -6 -48 -7 -49
-27 -35 -13 9 -49 16 -92 17 l-70 2 85 5 85 6 9 43 c9 39 36 60 36 27z m-249
-36 c-6 -16 -10 -18 -10 -7 -1 22 12 55 16 42 2 -6 -1 -22 -6 -35z m2794 21
c3 -5 1 -10 -4 -10 -6 0 -11 5 -11 10 0 6 2 10 4 10 3 0 8 -4 11 -10z m1176 0
c10 -6 19 -15 19 -21 0 -5 -13 -3 -30 6 -16 9 -30 18 -30 20 0 8 20 6 41 -5z
m-451 -10 c0 -5 -4 -10 -10 -10 -5 0 -10 5 -10 10 0 6 5 10 10 10 6 0 10 -4
10 -10z m185 -30 c3 -5 1 -10 -4 -10 -6 0 -11 5 -11 10 0 6 2 10 4 10 3 0 8
-4 11 -10z m112 -16 c-3 -3 -12 -4 -19 -1 -8 3 -5 6 6 6 11 1 17 -2 13 -5z
m-4179 -11 c-16 -2 -40 -2 -55 0 -16 2 -3 4 27 4 30 0 43 -2 28 -4z m4150 -15
c7 -7 12 -16 12 -22 0 -6 -5 -5 -11 1 -6 6 -18 9 -25 6 -10 -4 -12 0 -8 11 7
19 16 20 32 4z m139 -8 c14 -11 23 -20 20 -20 -14 0 -57 24 -57 32 0 13 10 10
37 -12z m-1387 -15 c0 -8 -4 -15 -10 -15 -5 0 -10 7 -10 15 0 8 5 15 10 15 6
0 10 -7 10 -15z m1447 -17 c-3 -8 -6 -5 -6 6 -1 11 2 17 5 13 3 -3 4 -12 1
-19z m-3739 -45 l-1 -58 -6 50 c-6 48 -5 65 5 65 2 0 3 -26 2 -57z m1202 -28
c0 -37 -4 -65 -10 -65 -6 0 -10 28 -10 65 0 37 4 65 10 65 6 0 10 -28 10 -65z
m-1779 -5 l-9 -45 -1 37 c-1 20 2 44 6 54 11 29 14 2 4 -46z m3757 38 c14 -14
16 -28 2 -28 -5 0 -14 9 -20 20 -12 22 -1 27 18 8z m352 -2 c0 -11 -19 -15
-25 -6 -3 5 1 10 9 10 9 0 16 -2 16 -4z m-210 -36 c13 -8 13 -10 -2 -10 -9 0
-20 5 -23 10 -8 13 5 13 25 0z m290 -10 c0 -5 -2 -10 -4 -10 -3 0 -8 5 -11 10
-3 6 -1 10 4 10 6 0 11 -4 11 -10z m140 -30 c0 -5 -4 -10 -9 -10 -6 0 -13 5
-16 10 -3 6 1 10 9 10 9 0 16 -4 16 -10z m-1960 -19 c0 -6 -4 -13 -10 -16 -5
-3 -10 1 -10 9 0 9 5 16 10 16 6 0 10 -4 10 -9z m1230 -16 c0 -8 -4 -15 -10
-15 -5 0 -7 7 -4 15 4 8 8 15 10 15 2 0 4 -7 4 -15z m-60 -10 c0 -8 -7 -15
-15 -15 -9 0 -12 6 -9 15 4 8 10 15 15 15 5 0 9 -7 9 -15z m554 6 c3 -5 -5 -8
-18 -7 -13 0 -22 4 -19 9 6 10 31 9 37 -2z m26 -28 c0 -5 -5 -15 -10 -23 -8
-12 -10 -11 -10 8 0 12 5 22 10 22 6 0 10 -3 10 -7z m-1720 -33 c-9 -17 -30
-28 -30 -16 0 16 15 36 26 36 12 0 12 -4 4 -20z m1160 0 c0 -5 -4 -10 -10 -10
-5 0 -10 5 -10 10 0 6 5 10 10 10 6 0 10 -4 10 -10z m561 -64 c9 5 10 -5 6
-37 -4 -35 -3 -40 5 -24 16 30 18 31 28 15 7 -11 12 -11 23 -2 12 10 16 9 21
-4 4 -9 4 -19 1 -22 -3 -3 -5 0 -5 8 0 10 -3 10 -15 0 -8 -7 -23 -9 -32 -6
-13 4 -12 1 5 -13 13 -12 18 -22 12 -26 -5 -3 -10 -1 -10 4 0 6 -4 11 -10 11
-5 0 -10 -9 -10 -20 0 -11 5 -20 10 -20 6 0 10 -9 10 -20 0 -24 -17 -26 -41
-4 -16 14 -20 14 -48 0 -37 -19 -41 -20 -41 -3 0 8 11 19 25 25 14 6 25 20 25
29 0 10 -4 14 -8 8 -10 -14 -52 -37 -52 -28 1 14 39 55 47 50 4 -2 17 -1 28 4
19 7 19 8 1 8 -15 1 -16 4 -6 16 17 20 3 58 -18 50 -14 -5 -15 -4 -4 6 6 7 12
22 12 34 1 15 5 11 15 -13 9 -21 19 -31 26 -26z m-998 18 c-7 -18 -10 -18 -22
5 -9 16 -8 18 8 14 12 -3 17 -11 14 -19z m410 11 c-3 -9 -2 -15 3 -14 21 4 26
-2 14 -16 -16 -19 4 -46 28 -38 15 4 15 3 2 -6 -8 -6 -25 -11 -37 -11 -12 0
-27 -8 -33 -17 -9 -17 -12 -16 -31 7 -11 13 -16 26 -10 28 5 2 7 10 4 19 -4
11 -2 14 5 9 7 -4 12 -5 12 -2 0 2 3 12 7 22 5 13 3 15 -7 9 -8 -5 -11 -4 -6
3 4 6 14 8 23 5 11 -4 14 -3 9 5 -4 7 -1 12 8 12 10 0 13 -6 9 -15z m-120 -48
c-9 -16 -26 12 -18 30 7 17 8 17 15 -2 4 -11 5 -24 3 -28z m41 27 c4 -9 4 -19
1 -22 -3 -3 -5 0 -5 6 0 7 -7 12 -15 12 -8 0 -15 5 -15 10 0 16 27 11 34 -6z
m-694 -4 c0 -5 -7 -10 -16 -10 -8 0 -12 5 -9 10 3 6 10 10 16 10 5 0 9 -4 9
-10z m610 6 c0 -11 -19 -15 -25 -6 -3 5 1 10 9 10 9 0 16 -2 16 -4z m-517 -13
c-7 -2 -19 -2 -25 0 -7 3 -2 5 12 5 14 0 19 -2 13 -5z m27 -23 c0 -5 -4 -10
-10 -10 -5 0 -10 5 -10 10 0 6 5 10 10 10 6 0 10 -4 10 -10z m-179 -56 l-9
-39 -1 36 c-1 20 2 39 6 42 12 13 13 0 4 -39z m61 -1 c18 -16 18 -16 12 0 -3
10 -1 17 5 17 6 0 11 -9 11 -20 0 -11 -5 -20 -11 -20 -5 0 -7 -5 -4 -10 4 -6
12 -7 18 -4 9 5 9 4 2 -4 -15 -16 -77 7 -70 26 3 8 5 18 5 23 0 14 11 11 32
-8z m169 -35 c11 -5 10 -7 -4 -13 -12 -5 -23 0 -37 16 -28 35 -25 61 4 28 12
-14 29 -29 37 -31z m669 -17 c0 -5 9 -16 21 -24 14 -11 17 -16 7 -19 -10 -4
-9 -9 5 -22 24 -24 22 -25 -23 -13 -27 8 -40 17 -40 29 0 10 -15 24 -35 34
-42 20 -53 34 -27 34 10 0 27 9 37 20 17 19 18 19 36 -4 11 -13 19 -29 19 -35z
m-320 39 c0 -5 -5 -10 -11 -10 -5 0 -7 5 -4 10 3 6 8 10 11 10 2 0 4 -4 4 -10z
m140 -32 c0 -18 -2 -20 -9 -8 -6 8 -7 18 -5 22 9 14 14 9 14 -14z m-136 -11
c-3 -8 -1 -24 4 -38 5 -13 6 -33 1 -44 -7 -17 -8 -16 -8 8 -1 15 -5 27 -11 27
-6 0 -8 -20 -5 -47 6 -54 -7 -25 -18 40 -4 27 -3 36 6 30 8 -4 7 -1 -1 9 -11
14 -10 17 10 21 13 2 24 5 25 6 1 0 0 -5 -3 -12z m969 1 c35 -19 49 -35 34
-41 -8 -3 -19 4 -25 14 -7 10 -21 19 -31 19 -11 0 -23 5 -26 10 -8 14 21 13
48 -2z m-5072 -25 c-11 -4 -11 -7 0 -14 20 -12 10 -16 -61 -22 -40 -4 -57 -2
-45 3 32 14 -47 13 -82 -1 -26 -11 -106 -15 -366 -22 -81 -3 -111 -7 -118 -18
-5 -8 -9 -9 -9 -3 0 8 -24 11 -70 10 -52 -1 -70 -4 -70 -15 0 -10 -4 -11 -12
-3 -13 10 -47 9 -115 -3 -17 -3 -34 -1 -38 4 -4 7 -12 7 -23 0 -14 -9 -26 -6
-55 11 -82 48 -43 59 218 61 99 1 230 5 290 9 132 8 576 11 556 3z m3516 -15
c-3 -8 -6 -5 -6 6 -1 11 2 17 5 13 3 -3 4 -12 1 -19z m730 -20 c-3 -7 -5 -2
-5 12 0 14 2 19 5 13 2 -7 2 -19 0 -25z m697 16 c14 -5 14 -9 0 -36 -12 -22
-19 -27 -27 -19 -6 6 -19 11 -29 11 -16 0 -17 3 -8 20 6 11 15 18 20 15 5 -3
11 -1 15 5 7 12 8 12 29 4z m-6064 -12 c0 -4 -9 -13 -20 -20 -22 -13 -23 -12
-14 12 6 16 34 23 34 8z m975 -12 c-3 -5 -10 -10 -16 -10 -5 0 -9 5 -9 10 0 6
7 10 16 10 8 0 12 -4 9 -10z m4540 -28 c-3 -3 -11 0 -18 7 -9 10 -8 11 6 5 10
-3 15 -9 12 -12z m-5485 -11 c0 -5 -11 -11 -25 -13 -24 -5 -32 2 -18 15 9 10
43 8 43 -2z m4683 -38 c-7 -2 -19 -2 -25 0 -7 3 -2 5 12 5 14 0 19 -2 13 -5z
m1552 -24 c5 -7 -7 -9 -35 -5 -56 6 -63 16 -12 16 22 0 44 -5 47 -11z m-872
-30 c-7 -7 -29 -7 -69 -1 l-59 10 70 1 c49 1 66 -2 58 -10z m-233 -98 l0 -50
-32 10 c-18 5 -52 9 -75 9 l-43 0 0 40 0 40 75 0 75 0 0 -49z m70 9 c0 -28 -4
-40 -14 -40 -8 0 -21 -3 -30 -6 -13 -5 -16 2 -16 40 0 44 1 46 30 46 28 0 30
-2 30 -40z m953 13 c-7 -2 -19 -2 -25 0 -7 3 -2 5 12 5 14 0 19 -2 13 -5z m84
-9 c-3 -3 -12 -4 -19 -1 -8 3 -5 6 6 6 11 1 17 -2 13 -5z m-78 -26 c64 -7 105
-14 91 -16 -14 -2 -30 -8 -37 -13 -7 -6 -12 -6 -15 0 -4 14 -293 24 -348 13
-40 -9 -34 -10 55 -11 120 -1 206 -11 200 -22 -3 -4 -36 -6 -73 -5 -37 2 -163
7 -279 11 -117 5 -213 12 -213 17 0 4 55 8 123 8 68 1 146 7 177 15 70 17 174
18 319 3z m-2472 -53 c3 -16 2 -44 -2 -62 -6 -31 -8 -33 -43 -29 -20 2 -45 7
-54 11 -15 6 -41 12 -60 14 -5 1 -8 24 -8 51 l0 51 82 -3 81 -3 4 -30z m113
-30 l0 -64 -30 6 c-20 3 -30 1 -30 -6 0 -9 -5 -9 -20 -1 -17 9 -20 21 -20 70
l0 60 50 0 50 0 0 -65z m1833 9 c-6 -17 -19 -18 -29 -3 -4 7 -21 9 -40 6 -19
-3 -34 -2 -34 2 0 14 8 16 58 13 39 -3 49 -7 45 -18z m-4266 -3 c22 -7 33 -6
36 2 3 7 3 -15 0 -48 -3 -33 -8 -63 -12 -66 -3 -4 -41 -10 -84 -14 -72 -6 -77
-5 -70 11 6 15 3 15 -17 -4 -18 -16 -27 -19 -37 -11 -8 7 -13 8 -13 1 0 -5
-13 -7 -32 -3 -33 7 -33 8 -36 69 l-3 62 66 0 65 0 2 -47 2 -48 3 47 c3 33 9
48 21 51 30 8 76 7 109 -2z m4380 3 c-3 -3 -12 -4 -19 -1 -8 3 -5 6 6 6 11 1
17 -2 13 -5z m180 -10 c-3 -3 -12 -4 -19 -1 -8 3 -5 6 6 6 11 1 17 -2 13 -5z
m-534 -41 c-7 -2 -21 -2 -30 0 -10 3 -4 5 12 5 17 0 24 -2 18 -5z m-303 -29
c25 -2 92 -7 150 -11 136 -8 180 -20 70 -19 -47 0 -100 -3 -119 -8 -25 -7 -32
-6 -27 2 4 7 2 10 -7 6 -7 -2 -27 1 -43 8 -16 6 -60 13 -99 14 -108 2 -115 3
-115 14 0 10 71 7 190 -6z m-765 -54 c15 -6 7 -9 -27 -8 -27 1 -48 5 -48 10 0
10 49 9 75 -2z m-3355 -20 c0 -5 -4 -10 -10 -10 -5 0 -10 5 -10 10 0 6 5 10
10 10 6 0 10 -4 10 -10z m3198 3 c-10 -2 -28 -2 -40 0 -13 2 -5 4 17 4 22 1
32 -1 23 -4z m287 -3 l20 -9 -20 1 c-11 0 -31 4 -45 8 l-25 8 25 0 c14 0 34
-3 45 -8z m50 -11 c11 -16 1 -19 -13 -3 -7 8 -8 14 -3 14 5 0 13 -5 16 -11z
m85 -15 c0 -2 -13 -4 -30 -4 -16 0 -30 4 -30 8 0 5 14 7 30 4 17 -2 30 -6 30
-8z m144 -4 c49 0 87 -2 85 -4 -9 -9 -108 -13 -153 -6 -24 4 -52 3 -60 -2 -12
-7 -14 -5 -9 7 4 11 13 15 27 11 11 -3 61 -6 110 -6z m-1284 -10 c0 -5 -4 -10
-10 -10 -5 0 -10 5 -10 10 0 6 5 10 10 10 6 0 10 -4 10 -10z m-135 -10 c3 5
11 10 17 10 7 0 7 -5 -1 -14 -9 -11 -9 -15 1 -19 7 -2 -29 -4 -81 -3 -69 1
-96 5 -99 14 -3 11 0 12 16 3 10 -6 22 -8 26 -4 11 12 81 20 98 11 10 -5 19
-4 23 2z m-1070 -10 c3 -5 1 -10 -4 -10 -6 0 -11 5 -11 10 0 6 2 10 4 10 3 0
8 -4 11 -10z m215 -6 c0 -2 -9 -4 -21 -4 -11 0 -18 4 -14 10 5 8 35 3 35 -6z
m645 6 c4 -6 -6 -10 -22 -9 -25 0 -26 1 -8 9 11 5 21 9 22 9 1 1 5 -3 8 -9z
m35 -10 c0 -11 -4 -20 -10 -20 -5 0 -10 9 -10 20 0 11 5 20 10 20 6 0 10 -9
10 -20z m-643 4 c-3 -3 -12 -4 -19 -1 -8 3 -5 6 6 6 11 1 17 -2 13 -5z m-1010
-48 c-30 -8 -31 -9 -9 -17 43 -16 20 -43 -36 -42 -18 0 -36 3 -39 7 -3 3 -12
1 -20 -6 -11 -9 -19 -6 -36 14 -25 28 -69 45 -60 22 2 -7 13 -14 24 -16 20 -3
23 -23 4 -23 -5 0 -15 -3 -20 -7 -6 -4 -17 -3 -25 2 -7 4 -24 4 -36 0 -31 -12
-40 4 -10 18 17 7 27 7 35 -1 8 -8 11 -4 11 16 0 15 -6 27 -12 27 -8 0 -5 7 6
15 15 11 44 14 123 12 58 -2 106 0 110 6 3 5 9 3 14 -4 6 -10 0 -16 -24 -23z
m230 28 c-3 -3 -12 -4 -19 -1 -8 3 -5 6 6 6 11 1 17 -2 13 -5z m-38 -10 c24
-5 29 -10 21 -19 -6 -7 -9 -18 -8 -25 2 -7 -3 -15 -11 -18 -10 -3 -13 1 -8 17
3 14 0 21 -9 21 -8 0 -14 -6 -14 -12 0 -9 -16 -13 -45 -13 -30 0 -45 4 -45 12
0 8 14 13 40 13 48 0 54 17 8 23 l-33 4 36 1 c20 1 51 -1 68 -4z m641 -9 c0
-8 -9 -15 -20 -15 -11 0 -20 -5 -20 -11 0 -5 -5 -7 -11 -3 -6 4 1 13 18 24 35
23 33 23 33 5z m-573 -1 c-3 -3 -12 -4 -19 -1 -8 3 -5 6 6 6 11 1 17 -2 13 -5z
m783 -39 c-3 -5 -12 -8 -20 -5 -8 2 -32 4 -52 4 -21 1 -38 5 -38 11 0 6 21 8
58 5 33 -3 55 -9 52 -15z m750 15 c12 -8 9 -10 -12 -10 -16 0 -28 5 -28 10 0
13 20 13 40 0z m-1730 -19 c0 -18 -18 -21 -30 -6 -10 13 -9 15 9 15 11 0 21
-4 21 -9z m180 -11 c0 -5 -2 -10 -4 -10 -3 0 -8 5 -11 10 -3 6 -1 10 4 10 6 0
11 -4 11 -10z m3517 -92 c-3 -8 -6 -5 -6 6 -1 11 2 17 5 13 3 -3 4 -12 1 -19z
m740 -50 c-3 -8 -6 -5 -6 6 -1 11 2 17 5 13 3 -3 4 -12 1 -19z m-4820 -90 c-3
-8 -6 -5 -6 6 -1 11 2 17 5 13 3 -3 4 -12 1 -19z m69 -74 c-4 -9 -9 -15 -11
-12 -3 3 -3 13 1 22 4 9 9 15 11 12 3 -3 3 -13 -1 -22z m-55 -11 c-12 -20 -14
-14 -5 12 4 9 9 14 11 11 3 -2 0 -13 -6 -23z m266 -45 c-3 -7 -5 -2 -5 12 0
14 2 19 5 13 2 -7 2 -19 0 -25z m160 10 c-3 -8 -6 -5 -6 6 -1 11 2 17 5 13 3
-3 4 -12 1 -19z m353 -8 c0 -5 -4 -10 -10 -10 -5 0 -10 5 -10 10 0 6 5 10 10
10 6 0 10 -4 10 -10z m-29 -53 c-10 -9 -11 -8 -5 6 3 10 9 15 12 12 3 -3 0
-11 -7 -18z m-854 -9 c-3 -8 -6 -5 -6 6 -1 11 2 17 5 13 3 -3 4 -12 1 -19z
m240 -60 c-3 -7 -5 -2 -5 12 0 14 2 19 5 13 2 -7 2 -19 0 -25z m-30 -40 c-3
-8 -6 -5 -6 6 -1 11 2 17 5 13 3 -3 4 -12 1 -19z"/>
<path d="M540 4170 c-13 -8 -12 -10 3 -10 9 0 17 5 17 10 0 12 -1 12 -20 0z"/>
<path d="M2602 4030 c0 -14 2 -19 5 -12 2 6 2 18 0 25 -3 6 -5 1 -5 -13z"/>
<path d="M2470 3970 c0 -62 17 -66 22 -5 2 29 -1 46 -9 50 -9 3 -13 -10 -13
-45z"/>
<path d="M2531 3984 c0 -11 3 -14 6 -6 3 7 2 16 -1 19 -3 4 -6 -2 -5 -13z"/>
<path d="M2310 3420 c-8 -5 -11 -12 -7 -16 4 -4 13 -2 19 4 15 15 7 24 -12 12z"/>
<path d="M3822 2695 c0 -16 2 -22 5 -12 2 9 2 23 0 30 -3 6 -5 -1 -5 -18z"/>
<path d="M4448 2994 c-2 -80 0 -148 5 -151 4 -2 7 64 7 146 0 83 -2 151 -4
151 -3 0 -6 -66 -8 -146z"/>
<path d="M4502 3100 c0 -19 2 -27 5 -17 2 9 2 25 0 35 -3 9 -5 1 -5 -18z"/>
<path d="M4472 3040 l1 -85 7 65 c3 36 3 74 -1 85 -4 11 -7 -17 -7 -65z"/>
<path d="M4572 3020 c0 -14 2 -19 5 -12 2 6 2 18 0 25 -3 6 -5 1 -5 -13z"/>
<path d="M4620 2939 c0 -5 5 -7 10 -4 6 3 10 8 10 11 0 2 -4 4 -10 4 -5 0 -10
-5 -10 -11z"/>
<path d="M4671 3074 c0 -11 3 -14 6 -6 3 7 2 16 -1 19 -3 4 -6 -2 -5 -13z"/>
<path d="M4694 2965 c0 -49 1 -71 3 -48 2 23 2 64 0 90 -2 26 -3 8 -3 -42z"/>
<path d="M4983 2955 c0 -33 2 -45 4 -27 2 18 2 45 0 60 -2 15 -4 0 -4 -33z"/>
<path d="M4927 2923 c-11 -10 -8 -43 3 -43 6 0 10 11 10 25 0 26 -2 29 -13 18z"/>
<path d="M4851 2704 c0 -11 3 -14 6 -6 3 7 2 16 -1 19 -3 4 -6 -2 -5 -13z"/>
<path d="M3190 2130 c0 -5 5 -10 10 -10 6 0 10 -9 10 -20 0 -11 5 -20 11 -20
6 0 8 7 5 16 -3 9 -6 22 -6 30 0 8 -7 14 -15 14 -8 0 -15 -4 -15 -10z"/>
<path d="M3260 2101 c0 -22 16 -36 24 -22 8 12 -3 41 -15 41 -5 0 -9 -9 -9
-19z"/>
<path d="M3402 2030 c0 -19 2 -27 5 -17 2 9 2 25 0 35 -3 9 -5 1 -5 -18z"/>
<path d="M5041 2954 c0 -11 3 -14 6 -6 3 7 2 16 -1 19 -3 4 -6 -2 -5 -13z"/>
<path d="M5143 2915 c0 -27 2 -38 4 -22 2 15 2 37 0 50 -2 12 -4 0 -4 -28z"/>
<path d="M5162 2930 c0 -19 2 -27 5 -17 2 9 2 25 0 35 -3 9 -5 1 -5 -18z"/>
<path d="M5042 2855 c0 -16 2 -22 5 -12 2 9 2 23 0 30 -3 6 -5 -1 -5 -18z"/>
<path d="M5062 2850 c0 -19 2 -27 5 -17 2 9 2 25 0 35 -3 9 -5 1 -5 -18z"/>
<path d="M5450 2856 c0 -14 5 -28 10 -31 6 -3 10 5 10 19 0 14 -4 28 -10 31
-6 3 -10 -5 -10 -19z"/>
<path d="M5082 2825 c0 -16 2 -22 5 -12 2 9 2 23 0 30 -3 6 -5 -1 -5 -18z"/>
<path d="M2803 2074 c0 -8 9 -14 19 -14 10 0 18 4 18 9 0 5 -8 11 -18 13 -11
3 -19 0 -19 -8z"/>
<path d="M2890 2067 c-20 -8 -22 -11 -8 -14 20 -5 55 12 42 19 -5 3 -20 1 -34
-5z"/>
<path d="M2973 2063 c9 -2 23 -2 30 0 6 3 -1 5 -18 5 -16 0 -22 -2 -12 -5z"/>
<path d="M2890 2015 c0 -14 5 -25 10 -25 6 0 10 11 10 25 0 14 -4 25 -10 25
-5 0 -10 -11 -10 -25z"/>
<path d="M2871 2004 c0 -11 3 -14 6 -6 3 7 2 16 -1 19 -3 4 -6 -2 -5 -13z"/>
<path d="M5579 1676 c7 -8 19 -12 27 -9 18 7 10 16 -18 20 -17 3 -19 1 -9 -11z"/>
<path d="M505 5630 c-3 -5 3 -10 15 -10 12 0 18 5 15 10 -3 6 -10 10 -15 10
-5 0 -12 -4 -15 -10z"/>
<path d="M160 5601 c0 -18 -5 -20 -52 -17 -29 2 -65 7 -81 11 l-27 7 0 -102
c0 -101 0 -102 23 -95 54 16 113 17 129 1 32 -32 168 -33 168 -1 0 7 -6 16
-12 19 -10 3 -8 8 4 15 9 6 19 24 23 41 8 37 -12 60 -74 84 -25 10 -57 26 -73
37 l-28 20 0 -20z"/>
<path d="M2104 5555 c-8 -20 2 -45 18 -45 10 0 10 3 -1 9 -8 5 -12 18 -8 30 6
24 -1 29 -9 6z"/>
<path d="M4830 5510 c0 -5 9 -10 20 -10 11 0 20 5 20 10 0 6 -9 10 -20 10 -11
0 -20 -4 -20 -10z"/>
<path d="M4795 5490 c-3 -6 -18 -9 -32 -8 -21 2 -28 -2 -34 -25 -5 -20 -4 -30
6 -33 18 -7 62 25 69 51 6 22 1 31 -9 15z"/>
<path d="M6350 5440 c-8 -5 -10 -10 -5 -10 6 0 2 -7 -9 -15 -10 -7 -15 -18
-12 -24 3 -5 0 -16 -7 -23 -12 -11 -12 -16 -1 -26 7 -7 18 -12 23 -12 13 0 32
-35 24 -44 -3 -3 3 -6 15 -6 20 0 22 5 22 59 0 60 -13 111 -27 111 -5 0 -15
-5 -23 -10z"/>
<path d="M2690 5436 c0 -2 7 -7 16 -10 8 -3 12 -2 9 4 -6 10 -25 14 -25 6z"/>
<path d="M4828 5433 c7 -3 16 -2 19 1 4 3 -2 6 -13 5 -11 0 -14 -3 -6 -6z"/>
<path d="M2760 5406 c0 -3 9 -10 20 -16 11 -6 20 -8 20 -6 0 3 -9 10 -20 16
-11 6 -20 8 -20 6z"/>
<path d="M43 5363 l-43 -4 0 -49 0 -48 48 -5 c28 -2 59 1 76 9 16 8 49 14 73
14 32 0 43 4 43 15 0 11 -11 15 -40 15 -22 0 -40 4 -40 10 0 5 -18 13 -41 16
-28 5 -39 11 -35 20 3 8 4 13 3 12 -1 -1 -21 -3 -44 -5z"/>
<path d="M3675 5280 c3 -4 -5 -10 -18 -14 -13 -3 -41 -13 -62 -22 -34 -14 -37
-17 -21 -26 13 -7 20 -7 26 1 5 9 14 9 35 1 16 -6 34 -9 41 -6 14 5 76 -15 85
-28 4 -5 40 -4 85 1 58 8 68 11 37 12 -30 1 -43 5 -43 15 0 8 -25 24 -57 36
-80 31 -114 40 -108 30z"/>
<path d="M1840 5271 c0 -13 90 -18 101 -5 6 8 -7 11 -46 13 -30 1 -55 -3 -55
-8z"/>
<path d="M3070 5270 c-13 -9 -13 -10 0 -10 13 0 13 -1 0 -10 -20 -13 -8 -13
27 1 22 8 24 12 13 19 -19 12 -21 12 -40 0z"/>
<path d="M3137 5265 c6 -17 25 -15 31 3 2 7 -5 12 -17 12 -14 0 -19 -5 -14
-15z"/>
<path d="M3090 5231 c0 -5 6 -11 13 -14 8 -3 14 1 14 9 0 8 -6 14 -14 14 -7 0
-13 -4 -13 -9z"/>
<path d="M4515 5193 c-20 -11 -30 -12 -33 -4 -5 14 -148 15 -157 1 -3 -5 -13
-10 -21 -10 -9 0 -24 -10 -35 -22 -16 -19 -20 -21 -28 -8 -6 8 -13 11 -17 8
-3 -4 1 -14 10 -23 9 -9 16 -23 16 -30 0 -21 22 -65 32 -65 5 0 6 5 3 10 -3 6
-4 18 -1 28 7 20 43 20 239 1 86 -9 117 -16 117 -25 0 -17 22 -18 38 -2 16 16
15 28 -2 28 -8 0 -21 6 -29 14 -8 8 -32 16 -53 19 l-39 4 43 1 c40 2 43 4 37
25 -8 27 -32 47 -57 47 -10 0 -18 5 -18 10 0 14 -10 12 -45 -7z"/>
<path d="M545 5190 c3 -5 8 -10 11 -10 2 0 4 5 4 10 0 6 -5 10 -11 10 -5 0 -7
-4 -4 -10z"/>
<path d="M3955 5170 c3 -5 8 -10 11 -10 2 0 4 5 4 10 0 6 -5 10 -11 10 -5 0
-7 -4 -4 -10z"/>
<path d="M4640 5150 c0 -5 4 -10 9 -10 6 0 13 5 16 10 3 6 -1 10 -9 10 -9 0
-16 -4 -16 -10z"/>
<path d="M4120 5135 c0 -8 7 -15 15 -15 9 0 12 6 9 15 -4 8 -10 15 -15 15 -5
0 -9 -7 -9 -15z"/>
<path d="M4263 5006 c-13 -6 -23 -14 -23 -17 0 -10 39 1 46 13 9 14 2 15 -23
4z"/>
<path d="M4360 4975 c14 -8 41 -14 60 -14 l35 1 -30 13 c-16 8 -43 14 -60 14
l-30 0 25 -14z"/>
<path d="M4063 4873 c-15 -5 -17 -23 -4 -23 5 0 11 7 15 15 3 8 4 15 3 14 -1
0 -8 -3 -14 -6z"/>
<path d="M4095 4870 c4 -6 11 -8 16 -5 14 9 11 15 -7 15 -8 0 -12 -5 -9 -10z"/>
<path d="M4180 4841 c0 -31 4 -41 21 -46 11 -4 23 -4 26 -1 4 3 -1 6 -10 6
-13 0 -17 9 -17 40 0 22 -4 40 -10 40 -5 0 -10 -18 -10 -39z"/>
<path d="M4130 4846 c0 -8 7 -16 15 -20 10 -4 15 1 15 14 0 11 -7 20 -15 20
-8 0 -15 -6 -15 -14z"/>
<path d="M4400 4840 c0 -11 2 -20 4 -20 2 0 10 -2 18 -5 9 -4 14 3 16 20 1 19
-3 25 -18 25 -13 0 -20 -7 -20 -20z"/>
<path d="M4370 4800 c-12 -8 -11 -10 8 -10 12 0 22 5 22 10 0 13 -11 13 -30 0z"/>
<path d="M4548 4803 c6 -3 12 -13 12 -24 0 -17 5 -18 39 -13 30 5 39 3 44 -10
4 -10 19 -16 42 -16 28 0 35 4 35 20 0 17 -7 20 -39 20 -22 0 -41 4 -43 9 -1
4 -25 10 -53 13 -27 3 -44 3 -37 1z"/>
<path d="M4800 4785 c0 -16 9 -19 34 -9 25 9 19 24 -9 24 -16 0 -25 -6 -25
-15z"/>
<path d="M4425 4770 c-17 -7 -15 -9 13 -9 17 -1 32 4 32 9 0 12 -17 12 -45 0z"/>
<path d="M4480 4735 c0 -7 8 -15 18 -19 9 -3 23 -9 30 -12 8 -4 12 3 12 18 0
19 -6 23 -30 24 -18 1 -30 -4 -30 -11z"/>
<path d="M4898 4743 c-10 -2 -18 -10 -18 -18 0 -10 -11 -12 -41 -8 -31 5 -41
3 -37 -7 4 -13 78 -43 78 -31 0 3 18 7 40 9 29 2 42 -2 46 -13 4 -9 15 -20 26
-26 16 -8 19 -8 13 1 -5 9 -1 10 14 5 13 -4 21 -2 21 5 0 6 -4 9 -9 6 -5 -4
-12 0 -15 6 -5 10 -7 10 -12 1 -3 -7 -10 -13 -15 -13 -6 0 -7 5 -4 10 3 6 2
10 -3 10 -5 0 -13 15 -18 33 -10 32 -28 41 -66 30z"/>
<path d="M4240 4716 c0 -2 7 -7 16 -10 8 -3 12 -2 9 4 -6 10 -25 14 -25 6z"/>
<path d="M4750 4712 c0 -5 -9 -19 -20 -32 l-21 -24 -15 22 c-9 13 -21 19 -30
15 -13 -5 -10 -10 13 -29 15 -13 39 -24 53 -24 23 -1 23 -2 5 -10 -18 -8 -17
-9 8 -9 24 -1 27 2 27 33 0 19 3 41 6 50 4 11 1 16 -10 16 -9 0 -16 -4 -16 -8z"/>
<path d="M5027 4703 c-4 -3 -7 -11 -7 -17 0 -6 5 -5 12 2 6 6 9 14 7 17 -3 3
-9 2 -12 -2z"/>
<path d="M4720 4590 c0 -5 5 -10 10 -10 6 0 10 5 10 10 0 6 -4 10 -10 10 -5 0
-10 -4 -10 -10z"/>
<path d="M4626 4564 c-8 -21 -8 -24 5 -24 5 0 7 5 4 10 -3 6 -1 10 4 10 6 0
11 5 11 10 0 16 -17 12 -24 -6z"/>
<path d="M4651 4528 c0 -28 2 -30 9 -13 12 28 12 45 0 45 -5 0 -10 -15 -9 -32z"/>
<path d="M631 4314 c0 -11 3 -14 6 -6 3 7 2 16 -1 19 -3 4 -6 -2 -5 -13z"/>
<path d="M6383 1652 c-8 -5 -8 -12 2 -25 12 -17 13 -16 11 7 0 15 -1 26 -1 26
0 0 -5 -4 -12 -8z"/>
</g>
</svg>
